{"title":"The.Danish.Girl.2015.WEBRip.480p.x264.AAC-VYTO [P2PDL]","uid":13671257,"size":432573688,"categoryP":"video","categoryS":"movies","magnet":"?xt=urn:btih:3f86244085f6b11f39a9452a3c6aaecfb63ddee6&amp;dn=The.Danish.Girl.2015.WEBRip.480p.x264.AAC-VYTO+%5BP2PDL%5D&amp;tr=udp%3A%2F%2Ftracker.leechers-paradise.org%3A6969&amp;tr=udp%3A%2F%2Fzer0day.ch%3A1337&amp;tr=udp%3A%2F%2Fopen.demonii.com%3A1337&amp;tr=udp%3A%2F%2Ftracker.coppersurfer.tk%3A6969&amp;tr=udp%3A%2F%2Fexodus.desync.com%3A6969","seeders":3,"leechers":2,"uploader":"VYTOP2PDL","files":7,"time":1456332444,"description":"The.Danish.Girl.2015.WEBRip.480p.x264.AAC-VYTO\r\n\r\n\r\nGenre: Biography, Drama, Romance  \nhttp://www.imdb.com/title/tt0810819/\r\n\r\n\r\nFormat                                   : MPEG-4\r\nFile size                                : 404 MiB\r\nDuration                                 : 1h 59mn\r\nOverall bit rate                         : 472 Kbps\r\n\r\nVideo\r\nFormat                                   : AVC\r\nBit rate                                 : 437 Kbps\r\nWidth                                    : 720 pixels\r\nHeight                                   : 384 pixels\r\nDisplay aspect ratio                     : 1.85:1\r\nFrame rate mode                          : Constant\r\nFrame rate                               : 23.976 fps\r\nBit depth                                : 8 bits\r\nStream size                              : 374 MiB (93%)\r\nWriting library                          : x264\r\n\r\nAudio\r\nFormat                                   : AAC\r\nBit rate mode                            : Variable\r\nBit rate                                 : 32.0 Kbps\r\nChannel(s)                               : 2 channels\r\nChannel positions                        : Front: L R \r\nSampling rate                            : 48.0 KHz \r\nStream size                              : 27.3 MiB (7%)\r\nLanguage                                 : English\r\n\r\nSubtitle                                 : Yes (English)\r\n\r\nScreen Shots: (Click to view)\r\n \nhttp://ititli.com/Xgq \nhttp://ititli.com/Xgr \nhttp://ititli.com/Xg1 \nhttp://ititli.com/XgT \nhttp://ititli.com/XgW \nhttp://ititli.com/Xgg \nhttp://ititli.com/Xgn \nhttp://ititli.com/Xgw \nhttp://ititli.com/Xg2\r\n\r\n----------------------------------------------------------------------------------------------------\r\n\r\n\r\nEncoder Notes: Looking For Early Access To Anything You Can Provide WEBDL, DVDScr, DVDR, BluRay,\r\nDirect Audio, Music Releases and Seedboxes. If You Got anything to offer please contact us.\r\n\r\nSupport us by donating BC - 1FgwdzPsd1y25Gea8wP1qni35uGCtmkRCD\r\n\r\nSend some love!\r\nFind us and join us!","torrent":{"xt":"urn:btih:3f86244085f6b11f39a9452a3c6aaecfb63ddee6","amp;dn":"The.Danish.Girl.2015.WEBRip.480p.x264.AAC-VYTO+%5BP2PDL%5D","amp;tr":["udp%3A%2F%2Ftracker.leechers-paradise.org%3A6969","udp%3A%2F%2Fzer0day.ch%3A1337","udp%3A%2F%2Fopen.demonii.com%3A1337","udp%3A%2F%2Ftracker.coppersurfer.tk%3A6969","udp%3A%2F%2Fexodus.desync.com%3A6969"],"infoHash":"3f86244085f6b11f39a9452a3c6aaecfb63ddee6","infoHashBuffer":{"type":"Buffer","data":[63,134,36,64,133,246,177,31,57,169,69,42,60,106,174,207,182,61,222,230]},"announce":[],"urlList":[]}}